<?xml version="1.0" encoding="UTF-8"?>
<svg id="Layer_1" data-name="Layer 1" xmlns="http://www.w3.org/2000/svg" version="1.1" xmlns:xlink="http://www.w3.org/1999/xlink" viewBox="0 0 133.3 73">
  <defs>
    <style>
      .cls-1 {
        isolation: isolate;
      }

      .cls-2, .cls-3 {
        fill: none;
      }

      .cls-2, .cls-4, .cls-5 {
        stroke-width: 0px;
      }

      .cls-6 {
        clip-path: url(#clippath-1);
      }

      .cls-3 {
        stroke: #fff;
        stroke-miterlimit: 10;
        stroke-width: 0px;
      }

      .cls-4 {
        fill: #3e3e3d;
      }

      .cls-7 {
        clip-path: url(#clippath);
      }

      .cls-5 {
        fill: #231f20;
      }
    </style>
    <clipPath id="clippath">
      <path class="cls-2" d="M37.5,36c.4,1.2,1.1,2.1,2.1,2.7,1,.6,2.3,1,3.8,1.1.4,0,.8,0,1.2,0,3.1,0,5.1-.6,6.1-2,1-1.3,1.4-4.7,1.5-5.8s-.2-2.3-1.2-2.6c-4.9-1.1-11.8-.3-12.8-.1-1.5.2-1.6,1.7-1.4,3.4s.4,2.3.7,3.2Z"/>
    </clipPath>
    <clipPath id="clippath-1">
      <path class="cls-2" d="M30.8,36c-.4,1.2-1.1,2.1-2.1,2.7-1,.6-2.3,1-3.8,1.1-.4,0-.8,0-1.2,0-3.1,0-5.1-.6-6.1-2-1-1.3-1.4-4.7-1.5-5.8s.2-2.3,1.2-2.6c4.9-1.1,11.8-.3,12.8-.1,1.5.2,1.6,1.7,1.4,3.4s-.4,2.3-.7,3.2Z"/>
    </clipPath>
  </defs>
  <g>
    <g>
      <path class="cls-4" d="M27.4,43.8c-.1.9,1.1,1.8,2.8,2,.6,0,1.2,0,1.7,0,.4,0,.7.2.8.5l.4,1.4.4-3.1c.1-.9-1.1-1.8-2.8-2-1.7-.2-3.2.2-3.3,1.1Z"/>
      <path class="cls-4" d="M37.5,42.7c-1.7.2-2.9,1.1-2.8,2l.4,3.1.4-1.4c0-.4.5-.6.8-.5.5,0,1.1,0,1.7,0,1.7-.2,2.9-1.1,2.8-2-.1-.9-1.6-1.4-3.3-1.1Z"/>
      <path class="cls-4" d="M23.8,53.4c-.2,0-.5.1-.7.2-.8.2-1.9.9-1.8,1.9l4.1-.8c5.7-1,11.5-1,17.1,0l4.1.8c0-1-1-1.7-1.8-1.9-.2,0-.5-.1-.7-.2-6.7-1.5-13.7-1.5-20.4,0Z"/>
      <path class="cls-5" d="M20.9,25.6c1.6-1.3,3.8-1,5.9-.5,2.2.5,4.6.7,7.2.8,0,0,.2,0,.3,0,2.5,0,4.9-.3,7.2-.8,2.1-.4,4.3-.8,5.9.5,2.3,0,4.4.3,6.1.7-.3-.8-.7-1.6-1.2-2.4h0s-2.4-6.3-7.4-9.8c0,0,.6,1,1.2,2.6,0,0,0,0,0,0-1.5-2.1-3.4-4.4-5.6-5.9,0,0,.7,1,1.5,2.5-1.4-1.6-3.2-3.3-5.7-4.9,0,0,.4.6,1,1.6-1.9-1.2-3.1-1.9-3.1-1.9,0,0-1.2.7-3.1,1.9.6-1,1-1.6,1-1.6-2.5,1.6-4.3,3.3-5.7,4.9.8-1.5,1.5-2.5,1.5-2.5-2.2,1.5-4.1,3.8-5.6,5.9,0,0,0,0,0,0,.6-1.6,1.2-2.6,1.2-2.6-5,3.5-7.4,9.8-7.4,9.8h0c-.5.8-.9,1.6-1.2,2.4,1.8-.5,3.9-.7,6.1-.7Z"/>
      <path class="cls-5" d="M53.6,27.5c-2-.5-4.4-.7-6.8-.7-3.6,0-7.1.5-8.9,1.1-1.2.4-2.6,1-3.8,1s-2.6-.6-3.8-1c-1.9-.6-5.3-1.1-8.9-1.1-2.3,0-4.7.2-6.8.7-.6.1-1,.7-.9,1.3v.9c0,.5.4.8.8,1,.2.1.5.3.6.7.3,1,1,5.3,2.4,7,1.4,1.8,4.1,2.1,6.4,2.1s.8,0,1.2,0c3.2-.1,5.3-1.6,6.2-4,.9-2.4,1.4-4.5,2-5.2.3-.4.7-.4.9-.4s.6,0,.9.4c.6.7,1.1,2.7,2,5.2.9,2.4,3,3.9,6.2,4,.4,0,.8,0,1.2,0,2.3,0,5-.3,6.4-2.1,1.3-1.7,2-6,2.4-7,.1-.4.4-.6.6-.7.4-.2.7-.6.7-1v-.9c0-.6-.3-1.1-.9-1.3ZM19.5,31.1c-1.3.9-1.8,2-1.8,2v-1.9c0-.9.7-1.5,1.5-1.5h3.6s-2.2.6-3.3,1.4ZM40.5,31.1c-1.3.9-1.8,2-1.8,2v-1.9c0-.9.7-1.5,1.5-1.5h3.6s-2.2.6-3.3,1.4Z"/>
      <path class="cls-4" d="M43.2,41.7c0,0-.1-.1-.2-.2-.7-.8-1.7-1.1-2.6-1.1-.4,0-.8,0-1.2,0-1.7.2-3.7.7-5,.7,0,0-.2,0-.3,0-1.3,0-3.2-.5-5-.7-.4,0-.8,0-1.2,0-1,0-2,.3-2.6,1.1,0,0-.1.1-.2.2-1.1,1.4-.8,3.4.6,4.5-.3-1.2,0-2.4.7-3.5.4-.5.8-.8,1.3-1,.8-.3,1.6-.4,2.4-.2,1.2.3,3.2.7,4.1.7.9,0,2.9-.4,4.1-.7.8-.2,1.6-.2,2.4.2.5.2.9.5,1.3,1,.8,1,1,2.3.7,3.5,1.4-1.1,1.7-3.1.6-4.5Z"/>
      <path class="cls-5" d="M66.9,39.4c0-2.5-.7-6.4-1.8-7.4v-.5c0-.7-.6-1.3-1.3-1.3h-.4c0-.9-.7-1.6-1.6-1.6h-1.4c0-3.8-.9-7.4-2.5-10.8.8-.7,1-1.8.5-2.7-2.4-4.2-5.8-7.7-10-10.2-4.3-2.5-9.2-3.9-14.2-3.9s-9.9,1.3-14.2,3.9c-4.1,2.5-7.6,6-10,10.2-.5.9-.3,2.1.5,2.7-1.6,3.3-2.4,7-2.5,10.8h-1.4c-.9,0-1.6.7-1.6,1.6h0s-.4,0-.4,0c-.7,0-1.3.6-1.3,1.3v.5c-1.1,1-1.8,4.9-1.9,7.4,0,2.3.7,6,1.7,7.5v.7c0,.7.6,1.3,1.3,1.3h.4s0,0,0,0c0,.9.7,1.6,1.6,1.6h3.4c-.2,1.4-.2,2.9,0,4.4,0,0,.3-1.2.9-2.6,0,0,0,.1,0,.2,0,1,.1,5.5,2.7,8.3,0,0-.2-.9-.3-2.4.5,1.7,1.6,4.7,4,6.5,0,0-.6-1.2-.9-3.1,0,0,0,0,0,0,.5,1.1,2.5,4.8,5.9,6.2,0,0-.9-1.1-1.6-2.9,0,0,0,0,0,0,1,1.1,3.4,3.7,6.1,5.2,0,0-.7-1-1.5-2.3,1.4,1.1,3.8,2.8,6.3,3.8,0,0-.4-.4-1-1.1,2.1,1,3.6,1.6,3.6,1.6,0,0,1.4-.6,3.6-1.6-.6.7-1,1.1-1,1.1,2.5-1,5-2.7,6.3-3.8-.8,1.3-1.5,2.3-1.5,2.3,2.7-1.6,5.1-4.1,6.1-5.2,0,0,0,0,0,0-.8,1.8-1.6,2.9-1.6,2.9,3.4-1.4,5.3-5.1,5.9-6.2,0,0,0,0,0,0-.3,1.9-.9,3.1-.9,3.1,2.4-1.7,3.5-4.7,4-6.5,0,1.4-.3,2.4-.3,2.4,2.6-2.8,2.7-7.3,2.7-8.3,0,0,0-.1,0-.2.6,1.4.9,2.6.9,2.6.3-1.6.3-3.1,0-4.4h3.4c.9,0,1.6-.8,1.6-1.6h0s.4,0,.4,0c.7,0,1.3-.6,1.3-1.3v-.7c.9-1.4,1.7-5.1,1.7-7.5ZM12.2,30s0,0,0,0c0,0,0,0,0,0,0,0,0,0,0,0ZM56,30s0,0,0,0c0,0,0,0,0,0,0,0,0,0,0,0ZM57.6,28.6c-.2,0-.3,0-.5,0h0s0,0,0,0c0,0,0,0,0,0,0,0,0,0,0,0,0,0,0,0,0,0,0,0,0,0,0,0,0,0,0,0,0,0,0,0,0,0,0,0,0,0-.2.1-.2.2,0,0,0,0,0,0,0,0,0,0,0,0,0,0,0,0,0,0,0,0,0,0,0,0,0,0,0,0,0,0,0,0,0,0,0,0,0,0,0,0,0,0,0,0,0,0,0,0,0,0,0,0,0,.1,0,0,0,0,0,0,0,0,0,0,0,0,0,0,0,0,0,0-.7,0-1.2.7-1.2,1.4,0,0-.2.2-.2.2-.1.1-.3.2-.4.3,0,0,0,0,0,.1,0,.2-.1.6-.2,1-.4,1.8-1.1,4.8-2.3,6.3-.5.6-1.1,1.1-1.8,1.4-.1,0-.3.2-.5.2-1.3.5-2.9.8-4.8.8,2,2.4,5.2,6.7,5.4,11.1.1,1.5,0,3-.5,4.3-.4,1.2-1.7,1.9-2.9,1.5-2.3-.8-5.8-1.7-9.9-1.3,0,0,7.3,2,9.7,4.9-2.3,2.3-8.2,2.2-11,2-1,0-2,0-3,0-2.7.2-8.4.3-10.7-2,2.4-2.9,9.7-4.9,9.7-4.9-4.1-.3-7.6.5-9.9,1.3-1.2.4-2.5-.2-2.9-1.5-.4-1.3-.6-2.8-.5-4.3.3-4.3,3.5-8.7,5.4-11.1-2,0-3.6-.3-4.8-.8-.2,0-.3-.1-.5-.2-.7-.4-1.3-.9-1.8-1.4-1.2-1.5-1.9-4.5-2.3-6.3,0-.4-.2-.8-.2-1,0,0,0-.1,0-.1-.1,0-.3-.2-.4-.3,0,0-.2-.2-.2-.2,0-.7-.5-1.3-1.2-1.4,0,0,0,0,0,0,0,0,0,0,0,0,0,0,0,0,0,0,0,0,0,0,0-.1,0,0,0,0,0,0,0,0,0,0,0,0,0,0,0,0,0,0,0,0,0,0,0,0,0,0,0,0,0,0,0,0,0,0,0,0,0,0,0,0,0,0,0,0,0,0,0,0,0,0,0,0-.2-.1,0,0,0,0,0,0,0,0,0,0,0,0,0,0,0,0,0,0,0,0,0,0,0,0,0,0,0,0,0,0,0,0,0,0,0,0,0,0,0,0,0,0,0,0,0,0,0,0,0,0,0,0,0,0h0c-.1,0-.3,0-.5,0h-1.2c0-3.7.9-7.2,2.4-10.3.8,0,1.5-.4,1.9-1.1,4.1-7.3,11.9-11.8,20.3-11.8s16.2,4.5,20.3,11.8c.4.7,1.1,1.1,1.9,1.1,1.5,3.1,2.4,6.6,2.4,10.2h-1.1Z"/>
    </g>
    <path class="cls-3" d="M37.5,36c.4,1.2,1.1,2.1,2.1,2.7,1,.6,2.3,1,3.8,1.1.4,0,.8,0,1.2,0,3.1,0,5.1-.6,6.1-2,1-1.3,1.4-4.7,1.5-5.8s-.2-2.3-1.2-2.6c-4.9-1.1-11.8-.3-12.8-.1-1.5.2-1.6,1.7-1.4,3.4s.4,2.3.7,3.2Z"/>
    <g class="cls-7">
      <image class="cls-1" width="295" height="89" transform="translate(14.7 28.7) scale(.1)" xlink:href="Printnoise-Websitelogo-VECTOR-1.png"/>
    </g>
    <path class="cls-3" d="M30.8,36c-.4,1.2-1.1,2.1-2.1,2.7-1,.6-2.3,1-3.8,1.1-.4,0-.8,0-1.2,0-3.1,0-5.1-.6-6.1-2-1-1.3-1.4-4.7-1.5-5.8s.2-2.3,1.2-2.6c4.9-1.1,11.8-.3,12.8-.1,1.5.2,1.6,1.7,1.4,3.4s-.4,2.3-.7,3.2Z"/>
    <g class="cls-6">
      <image class="cls-1" width="295" height="89" transform="translate(15.7 28.5) scale(.1)" xlink:href="Printnoise-Websitelogo-VECTOR-2.png"/>
    </g>
    <path class="cls-5" d="M27.4,43.8c-.1.9,1.1,1.8,2.8,2,.6,0,1.2,0,1.7,0,.4,0,.7.2.8.5l.4,1.4.4-3.1c.1-.9-1.1-1.8-2.8-2-1.7-.2-3.2.2-3.3,1.1Z"/>
    <path class="cls-5" d="M37.5,42.7c-1.7.2-2.9,1.1-2.8,2l.4,3.1.4-1.4c0-.4.5-.6.8-.5.5,0,1.1,0,1.7,0,1.7-.2,2.9-1.1,2.8-2-.1-.9-1.6-1.4-3.3-1.1Z"/>
    <path class="cls-5" d="M23.8,53.4c-.2,0-.5.1-.7.2-.8.2-1.9.9-1.8,1.9l4.1-.8c5.7-1,11.5-1,17.1,0l4.1.8c0-1-1-1.7-1.8-1.9-.2,0-.5-.1-.7-.2-6.7-1.5-13.7-1.5-20.4,0Z"/>
    <path class="cls-5" d="M43.2,41.7c0,0-.1-.1-.2-.2-.7-.8-1.7-1.1-2.6-1.1-.4,0-.8,0-1.2,0-1.7.2-3.7.7-5,.7,0,0-.2,0-.3,0-1.3,0-3.2-.5-5-.7-.4,0-.8,0-1.2,0-1,0-2,.3-2.6,1.1,0,0-.1.1-.2.2-1.1,1.4-.8,3.4.6,4.5-.3-1.2,0-2.4.7-3.5.4-.5.8-.8,1.3-1,.8-.3,1.6-.4,2.4-.2,1.2.3,3.2.7,4.1.7.9,0,2.9-.4,4.1-.7.8-.2,1.6-.2,2.4.2.5.2.9.5,1.3,1,.8,1,1,2.3.7,3.5,1.4-1.1,1.7-3.1.6-4.5Z"/>
  </g>
  <g>
    <g>
      <path class="cls-5" d="M81.4,41.7h4.5v16.7h-4.1l-6.8-9.1v9c0,0-4.4,0-4.4,0v-16.6h4.1l6.8,9.7v-9.6Z"/>
      <path class="cls-5" d="M98.7,58c-1.1.5-2.3.7-3.5.7s-2.4-.2-3.5-.7-2-1.1-2.8-1.8c-.8-.8-1.4-1.7-1.9-2.8s-.7-2.2-.7-3.4.2-2.3.7-3.4c.5-1.1,1.1-2,1.9-2.8.8-.8,1.7-1.4,2.8-1.8,1.1-.4,2.3-.7,3.5-.7s2.4.2,3.5.7c1.1.4,2,1.1,2.8,1.8.8.8,1.4,1.7,1.9,2.8.5,1.1.7,2.2.7,3.4s-.2,2.4-.7,3.4c-.5,1.1-1.1,2-1.9,2.8-.8.8-1.7,1.4-2.8,1.8ZM92.1,53.2c.8.9,1.9,1.3,3.1,1.3s2.3-.4,3.1-1.3,1.3-2,1.3-3.3-.4-2.4-1.3-3.3-1.9-1.3-3.1-1.3-2.3.4-3.1,1.3c-.8.9-1.3,2-1.3,3.3s.4,2.4,1.3,3.3Z"/>
      <path class="cls-5" d="M104.6,58.2v-16.5h4.5v16.5h-4.5Z"/>
      <path class="cls-5" d="M115.1,58.7c-1.7,0-3.5-.5-5.3-1.5v-4.7c.9.6,1.8,1.2,2.7,1.6,1,.4,1.8.7,2.5.7s.8-.1,1.1-.4c.3-.2.4-.6.4-1s0-.2,0-.3c0-.1,0-.2-.1-.3s-.1-.2-.2-.2c-.1,0-.2-.1-.3-.2,0,0-.2-.1-.4-.2s-.3-.1-.4-.2c-.1,0-.3-.1-.5-.2-.2,0-.4-.1-.5-.2-.8-.3-1.4-.6-1.9-.9-.5-.3-1-.6-1.4-1s-.7-.9-.9-1.4c-.2-.5-.3-1.2-.3-1.9,0-1.5.6-2.8,1.7-3.7,1.1-.9,2.5-1.3,4.3-1.3s3,.4,4.5,1.1v4.4c-.6-.5-1.3-.9-2.1-1.2-.9-.3-1.6-.5-2.3-.5s-1,.1-1.3.3c-.3.2-.4.5-.4.9s.2.7.5.9c.3.2.9.4,1.7.7.6.2,1.1.4,1.5.6.4.2.9.4,1.3.8s.8.6,1.1,1c.3.4.5.8.7,1.3.2.5.3,1.1.3,1.6,0,1.1-.3,2.1-.8,2.9-.5.8-1.2,1.4-2.1,1.8-.9.4-1.9.6-3.1.6Z"/>
      <path class="cls-5" d="M121.6,58.2v-16.5h10.5v4h-6v2.4h5.2v3.7h-5.2v2.5h6.1v4h-10.6Z"/>
    </g>
    <g>
      <path class="cls-5" d="M70.4,40.1v-17.6h6.3c1.9,0,3.4.5,4.6,1.6,1.2,1.1,1.7,2.5,1.7,4.3s-.6,3.2-1.7,4.3c-1.1,1.1-2.7,1.6-4.6,1.6h-1.7v5.8h-4.7ZM75.1,30.2h1.4c.7,0,1.2-.2,1.5-.5.4-.3.5-.8.5-1.3s-.2-1-.5-1.3-.9-.5-1.5-.5h-1.4v3.7Z"/>
      <path class="cls-5" d="M97,40.1h-5l-3.4-6.2h-.6v6.2h-4.7v-17.6h6.4c1.9,0,3.4.6,4.6,1.7,1.2,1.1,1.7,2.6,1.7,4.3s-.3,2.1-.8,2.9c-.5.8-1.2,1.4-2.2,1.8l4,6.8ZM88,26.6v3.6h1.5c.6,0,1.1-.2,1.4-.5s.5-.8.5-1.3-.2-1-.5-1.3-.8-.5-1.4-.5h-1.6Z"/>
      <path class="cls-5" d="M97.1,40.1v-17.6h4.7v17.6h-4.7Z"/>
      <path class="cls-5" d="M113.9,22.5h4.7v17.7h-4.3l-7.2-9.7v9.6c0,0-4.7,0-4.7,0v-17.7h4.3l7.1,10.3v-10.2Z"/>
      <path class="cls-5" d="M123.5,40.1v-13.3h-4.4v-4.2h13.3v4.2h-4.3v13.3h-4.7Z"/>
    </g>
  </g>
</svg>